<svg xmlns="http://www.w3.org/2000/svg" width="160" height="160" viewBox="0 0 160 160">
  <defs>
    <style>
      @keyframes pulse {
        0%, 100% { transform: scale(1); opacity: 1; }
        50% { transform: scale(1.05); opacity: 0.8; }
      }
      @keyframes glow {
        0%, 100% { filter: drop-shadow(0 0 5px rgba(0, 240, 255, 0.5)); }
        50% { filter: drop-shadow(0 0 15px rgba(0, 240, 255, 0.9)); }
      }
      @keyframes scan {
        0%, 100% { opacity: 0.3; }
        50% { opacity: 0.8; }
      }
      .bg { fill: #0a0f1a; }
      .border { stroke: #00f0ff; stroke-width: 2; fill: none; opacity: 0.5; }
      .shield {
        fill: none;
        stroke: #00f0ff;
        stroke-width: 4;
        stroke-linecap: round;
        stroke-linejoin: round;
        animation: glow 3s ease-in-out infinite;
        transform-origin: 80px 80px;
      }
      .shield-inner {
        fill: rgba(0, 240, 255, 0.1);
        stroke: #00f0ff;
        stroke-width: 2;
      }
      .lock-body {
        fill: none;
        stroke: #00f0ff;
        stroke-width: 3;
        animation: pulse 2s ease-in-out infinite;
        transform-origin: 80px 85px;
      }
      .keyhole {
        fill: #00f0ff;
        animation: glow 3s ease-in-out infinite;
      }
      .scan-line {
        stroke: #00ff80;
        stroke-width: 1;
        animation: scan 1.5s ease-in-out infinite;
      }
      .dot { fill: #00f0ff; opacity: 0.5; }
    </style>
  </defs>
  
  <rect class="bg" width="160" height="160" rx="15"/>
  <rect class="border" x="3" y="3" width="154" height="154" rx="15"/>
  
  <!-- Shield outline -->
  <path class="shield" d="M80,25 L120,40 L120,80 Q120,115 80,135 Q40,115 40,80 L40,40 Z"/>
  <path class="shield-inner" d="M80,35 L110,47 L110,78 Q110,105 80,122 Q50,105 50,78 L50,47 Z"/>
  
  <!-- Lock inside shield -->
  <rect class="lock-body" x="65" y="75" width="30" height="25" rx="3"/>
  <path class="lock-body" d="M70,75 L70,65 Q70,55 80,55 Q90,55 90,65 L90,75"/>
  
  <!-- Keyhole -->
  <circle class="keyhole" cx="80" cy="85" r="4"/>
  <rect class="keyhole" x="78" y="85" width="4" height="8"/>
  
  <!-- Scan lines -->
  <line class="scan-line" x1="45" y1="60" x2="115" y2="60"/>
  <line class="scan-line" x1="45" y1="100" x2="115" y2="100" style="animation-delay: 0.5s;"/>
  
  <!-- Corner dots -->
  <circle class="dot" cx="20" cy="20" r="3"/>
  <circle class="dot" cx="140" cy="20" r="3"/>
  <circle class="dot" cx="20" cy="140" r="3"/>
  <circle class="dot" cx="140" cy="140" r="3"/>
</svg>