<svg xmlns="http://www.w3.org/2000/svg" width="100" height="100" viewBox="0 0 100 100">
  <defs>
    <style>
      @keyframes float {
        0%, 100% { transform: translateY(0); }
        50% { transform: translateY(-5px); }
      }
      @keyframes glow {
        0%, 100% { filter: drop-shadow(0 0 5px #f05032); }
        50% { filter: drop-shadow(0 0 15px #f05032); }
      }
      @keyframes borderPulse {
        0%, 100% { stroke-opacity: 0.3; }
        50% { stroke-opacity: 0.8; }
      }
      .card { fill: #0a0f1a; }
      .border { stroke: #f05032; stroke-width: 2; fill: none; animation: borderPulse 2s infinite; }
      .icon-group { animation: float 3s ease-in-out infinite 0.2s, glow 2s infinite; }
      .name { font-family: 'Courier New', monospace; font-size: 11px; fill: #a0d2db; }
      .git { fill: #f05032; }
    </style>
  </defs>
  <rect class="card" width="100" height="100" rx="10"/>
  <rect class="border" x="2" y="2" width="96" height="96" rx="10"/>
  <g class="icon-group" transform="translate(25, 10)">
    <path class="git" d="M47.5 22.5L27.5 2.5c-1.5-1.5-4-1.5-5.5 0L17 7.5l7 7c1.5-.5 3.5 0 4.5 1.5 1 1.5 1 3.5 0 5l6.5 6.5c1.5-.5 3.5 0 4.5 1.5 1.5 1.5 1.5 4 0 5.5s-4 1.5-5.5 0c-1-1-1.5-2.5-1-4l-6-6v16c.5.5 1 1 1.5 1.5 1.5 1.5 1.5 4 0 5.5s-4 1.5-5.5 0-1.5-4 0-5.5c.5-.5 1-1 1.5-1.5V24.5c-.5-.5-1-1-1.5-1.5-1-1-1.5-2.5-1-4l-7-7-13 13c-1.5 1.5-1.5 4 0 5.5l20 20c1.5 1.5 4 1.5 5.5 0l19.5-19.5c1.5-1.5 1.5-4 0-5.5z"/>
  </g>
  <text class="name" x="50" y="85" text-anchor="middle">GIT</text>
</svg>