<svg xmlns="http://www.w3.org/2000/svg" width="100" height="100" viewBox="0 0 100 100">
  <defs>
    <style>
      @keyframes float {
        0%, 100% { transform: translateY(0); }
        50% { transform: translateY(-5px); }
      }
      @keyframes glow {
        0%, 100% { filter: drop-shadow(0 0 5px #3776ab); }
        50% { filter: drop-shadow(0 0 15px #3776ab); }
      }
      @keyframes borderPulse {
        0%, 100% { stroke-opacity: 0.3; }
        50% { stroke-opacity: 0.8; }
      }
      .card { fill: #0a0f1a; }
      .border { stroke: #3776ab; stroke-width: 2; fill: none; animation: borderPulse 2s infinite; }
      .icon-group { animation: float 3s ease-in-out infinite, glow 2s infinite; }
      .name { font-family: 'Courier New', monospace; font-size: 11px; fill: #a0d2db; }
      .py1 { fill: #3776ab; }
      .py2 { fill: #ffd43b; }
    </style>
  </defs>
  <rect class="card" width="100" height="100" rx="10"/>
  <rect class="border" x="2" y="2" width="96" height="96" rx="10"/>
  <g class="icon-group" transform="translate(25, 10)">
    <path class="py1" d="M25 0C11.2 0 12 5.8 12 5.8v6h13v2H8s-8-.9-8 12c0 12.9 7 12.4 7 12.4h4.2v-6s-.2-7 6.9-7h11.8s6.7.1 6.7-6.5V6.5S37.5 0 25 0zm-6.6 3.8c1.2 0 2.1 1 2.1 2.1 0 1.2-1 2.1-2.1 2.1-1.2 0-2.1-1-2.1-2.1 0-1.2 1-2.1 2.1-2.1z"/>
    <path class="py2" d="M25 50c13.8 0 13-5.8 13-5.8v-6H25v-2h17s8 .9 8-12c0-12.9-7-12.4-7-12.4h-4.2v6s.2 7-6.9 7H20.1s-6.7-.1-6.7 6.5v11.2S12.5 50 25 50zm6.6-3.8c-1.2 0-2.1-1-2.1-2.1 0-1.2 1-2.1 2.1-2.1 1.2 0 2.1 1 2.1 2.1 0 1.2-1 2.1-2.1 2.1z"/>
  </g>
  <text class="name" x="50" y="85" text-anchor="middle">PYTHON</text>
</svg>