<svg xmlns="http://www.w3.org/2000/svg" width="50" height="50" viewBox="0 0 50 50">
  <defs>
    <style>
      @keyframes pulse {
        0%, 100% { transform: scale(1); filter: drop-shadow(0 0 3px #ffffff); }
        50% { transform: scale(1.1); filter: drop-shadow(0 0 10px #ffffff); }
      }
      .bg { fill: #0a0f1a; }
      .border { stroke: #ffffff; stroke-width: 2; fill: none; }
      .icon { animation: pulse 2s infinite 1s; }
      .gh { fill: #ffffff; }
    </style>
  </defs>
  <rect class="bg" width="50" height="50" rx="10"/>
  <rect class="border" x="2" y="2" width="46" height="46" rx="10"/>
  <g class="icon">
    <path class="gh" d="M25 10c-8.3 0-15 6.7-15 15 0 6.6 4.3 12.2 10.3 14.2.8.1 1-.3 1-.7v-2.6c-4.2.9-5.1-2-5.1-2-.7-1.8-1.7-2.2-1.7-2.2-1.4-1 .1-1 .1-1 1.5.1 2.3 1.6 2.3 1.6 1.4 2.3 3.6 1.6 4.4 1.2.1-1 .5-1.6 1-2-3.3-.4-6.8-1.7-6.8-7.4 0-1.6.6-3 1.6-4-.2-.4-.7-1.9.1-4 0 0 1.3-.4 4.2 1.5 1.2-.3 2.5-.5 3.8-.5s2.6.2 3.8.5c2.9-1.9 4.2-1.5 4.2-1.5.8 2.1.3 3.6.1 4 1 1 1.6 2.4 1.6 4 0 5.8-3.5 7-6.8 7.4.5.5 1 1.4 1 2.8v4.2c0 .4.3.9 1 .7 6-2 10.3-7.6 10.3-14.2 0-8.3-6.7-15-15-15z"/>
  </g>
</svg>