<svg xmlns="http://www.w3.org/2000/svg" width="50" height="50" viewBox="0 0 50 50">
  <defs>
    <style>
      @keyframes pulse {
        0%, 100% { transform: scale(1); filter: drop-shadow(0 0 3px #5865f2); }
        50% { transform: scale(1.1); filter: drop-shadow(0 0 10px #5865f2); }
      }
      .bg { fill: #0a0f1a; }
      .border { stroke: #5865f2; stroke-width: 2; fill: none; }
      .icon { animation: pulse 2s infinite 0.8s; }
      .dc { fill: #5865f2; }
    </style>
  </defs>
  <rect class="bg" width="50" height="50" rx="10"/>
  <rect class="border" x="2" y="2" width="46" height="46" rx="10"/>
  <g class="icon">
    <path class="dc" d="M35 17c-2-1-4-1.5-6-2l-.5 1c2 .5 4 1 5.5 2-2.5-1.5-5-2.5-8-2.5s-5.5 1-8 2.5c1.5-1 3.5-1.5 5.5-2l-.5-1c-2 .5-4 1-6 2-3 4.5-4 9-3.5 13.5 2.5 2 5 3 7.5 3.5.5-1 1-2 1.5-3-1 0-2-.5-2.5-1l.5-.5c2 1 4.5 1.5 7 1.5s5-.5 7-1.5l.5.5c-.5.5-1.5 1-2.5 1 .5 1 1 2 1.5 3 2.5-.5 5-1.5 7.5-3.5.5-4.5-.5-9-3.5-13.5zM20 28c-1.5 0-2.5-1.5-2.5-3s1-3 2.5-3 2.5 1.5 2.5 3-1 3-2.5 3zm10 0c-1.5 0-2.5-1.5-2.5-3s1-3 2.5-3 2.5 1.5 2.5 3-1 3-2.5 3z"/>
  </g>
</svg>