<svg xmlns="http://www.w3.org/2000/svg" width="50" height="50" viewBox="0 0 50 50">
  <defs>
    <style>
      .bg { fill: #0a0f1a; stroke: #0077b5; stroke-width: 1; }
      .icon { fill: #0077b5; filter: drop-shadow(0 0 4px rgba(0, 119, 181, 0.6)); }
    </style>
  </defs>
  <rect class="bg" x="1" y="1" width="48" height="48" rx="10"/>
  <g class="icon" transform="translate(13, 13)">
    <path d="M0 2.5C0 1.1 1.1 0 2.5 0h19c1.4 0 2.5 1.1 2.5 2.5v19c0 1.4-1.1 2.5-2.5 2.5h-19C1.1 24 0 22.9 0 21.5v-19zM7.5 20V9.5H4V20h3.5zM5.75 8c1.2 0 1.95-.8 1.95-1.8C7.65 5.1 6.9 4.3 5.75 4.3S3.8 5.1 3.8 6.2C3.8 7.2 4.55 8 5.75 8zM20 20v-5.8c0-3.1-1.65-4.5-3.85-4.5-1.8 0-2.6 1-3 1.7V9.5H9.5c.05 1 0 10.5 0 10.5h3.5v-5.9c0-.3 0-.6.1-.85.3-.6.85-1.3 1.85-1.3 1.3 0 1.85 1 1.85 2.45V20H20z"/>
  </g>
</svg>