<svg xmlns="http://www.w3.org/2000/svg" width="55" height="55" viewBox="0 0 55 55">
  <defs>
    <style>
      .bg { fill: #0a0f1a; stroke: #0077b5; stroke-width: 2; }
      .icon { fill: #0077b5; filter: drop-shadow(0 0 4px rgba(0, 119, 181, 0.6)); }
    </style>
  </defs>
  <rect class="bg" x="2" y="2" width="51" height="51" rx="12"/>
  <g transform="translate(14, 14)">
    <path class="icon" d="M0 3.5C0 1.6 1.6 0 3.5 0h20C25.4 0 27 1.6 27 3.5v20c0 1.9-1.6 3.5-3.5 3.5h-20C1.6 27 0 25.4 0 23.5v-20zM8.4 22.5V10.4H4.5v12.1h3.9zM6.4 8.8c1.4 0 2.2-.9 2.2-2.1C8.6 5.5 7.8 4.6 6.5 4.6S4.3 5.5 4.3 6.7c0 1.2.8 2.1 2.1 2.1zM22.5 22.5v-6.7c0-3.6-1.9-5.2-4.5-5.2-2.1 0-3 1.1-3.5 1.9v-1.6H10.6c.1 1 0 12.1 0 12.1h3.9v-6.8c0-.4 0-.7.1-1 .3-.7.9-1.5 2.1-1.5 1.5 0 2.1 1.1 2.1 2.8v6.5h3.7z"/>
  </g>
</svg>