<svg xmlns="http://www.w3.org/2000/svg" width="50" height="50" viewBox="0 0 50 50">
  <defs>
    <style>
      .bg { fill: #0a0f1a; stroke: #ffa116; stroke-width: 1; }
      .icon { fill: #ffa116; filter: drop-shadow(0 0 4px rgba(255, 161, 22, 0.6)); }
    </style>
  </defs>
  <rect class="bg" x="1" y="1" width="48" height="48" rx="10"/>
  <g class="icon" transform="translate(12, 10)">
    <path d="M16.1 28.5c-1.4 0-2.5-.5-3.3-1.4l-7.4-7.7c-1.8-1.9-1.8-5 0-6.9l7.4-7.7c.8-.9 1.9-1.4 3.3-1.4s2.5.5 3.3 1.4l1.4 1.5-2.1 2.2-1.4-1.5c-.3-.3-.7-.5-1.2-.5s-.9.2-1.2.5l-7.4 7.7c-.6.7-.6 1.8 0 2.5l7.4 7.7c.3.3.7.5 1.2.5s.9-.2 1.2-.5l1.4-1.5 2.1 2.2-1.4 1.5c-.8.9-1.9 1.4-3.3 1.4z"/>
    <path d="M8 17h12v3H8z"/>
    <path d="M22.5 28.5c-.5 0-1-.2-1.4-.6l-2.1-2.2 2.1-2.2 2.1 2.2c.2.2.2.5 0 .7l-.7.7c-.2.2-.5.2-.7 0l-2.1-2.2 2.1-2.2c.4-.4 1-.4 1.4 0l2.1 2.2c1.2 1.2 1.2 3.1 0 4.3l-.7.7c-.4.4-.9.6-1.4.6z"/>
  </g>
</svg>