<svg xmlns="http://www.w3.org/2000/svg" width="50" height="50" viewBox="0 0 50 50">
  <defs>
    <style>
      .bg { fill: #0a0f1a; stroke: #5865f2; stroke-width: 1; }
      .icon { fill: #5865f2; filter: drop-shadow(0 0 4px rgba(88, 101, 242, 0.6)); }
    </style>
  </defs>
  <rect class="bg" x="1" y="1" width="48" height="48" rx="10"/>
  <g class="icon" transform="translate(10, 13) scale(0.65)">
    <path d="M42 9c-3-1.5-6.5-2.5-10-3l-1 2c3.5 0.5 6.5 1.5 9.5 3-4-2-8-3.5-13-3.5s-9 1.5-13 3.5c3-1.5 6-2.5 9.5-3l-1-2c-3.5 0.5-7 1.5-10 3C5 18 2 28 3 37c4 3 8 5 12 6 1-1.5 2-3 2.5-4.5-1.5-0.5-3-1-4-2l1-1c3 1.5 7 2.5 11 2.5s8-1 11-2.5l1 1c-1 1-2.5 1.5-4 2 0.5 1.5 1.5 3 2.5 4.5 4-1 8-3 12-6 1-9-2-19-10-28zM17 32c-2 0-4-2-4-4.5s2-4.5 4-4.5 4 2 4 4.5-2 4.5-4 4.5zm16 0c-2 0-4-2-4-4.5s2-4.5 4-4.5 4 2 4 4.5-2 4.5-4 4.5z"/>
  </g>
</svg>