<svg xmlns="http://www.w3.org/2000/svg" width="55" height="55" viewBox="0 0 55 55">
  <defs>
    <style>
      .bg { fill: #0a0f1a; stroke: #ffa116; stroke-width: 2; }
      .icon { fill: #ffa116; filter: drop-shadow(0 0 4px rgba(255, 161, 22, 0.6)); }
    </style>
  </defs>
  <rect class="bg" x="2" y="2" width="51" height="51" rx="12"/>
  <g transform="translate(13, 12) scale(0.65)">
    <path class="icon" d="M13.5 22.1c-1.1-1.1-1.1-2.9 0-4l6.4-6.4c1.1-1.1 2.9-1.1 4 0 1.1 1.1 1.1 2.9 0 4l-6.4 6.4c-1.1 1.1-2.9 1.1-4 0z"/>
    <path class="icon" d="M21.9 30.5c-1.1-1.1-1.1-2.9 0-4l6.4-6.4c1.1-1.1 2.9-1.1 4 0 1.1 1.1 1.1 2.9 0 4l-6.4 6.4c-1.1 1.1-2.9 1.1-4 0z"/>
    <path class="icon" d="M30.3 38.9c-1.1-1.1-1.1-2.9 0-4l6.4-6.4c1.1-1.1 2.9-1.1 4 0 1.1 1.1 1.1 2.9 0 4l-6.4 6.4c-1.1 1.1-2.9 1.1-4 0z"/>
    <path class="icon" d="M5.1 30.5c-1.1-1.1-1.1-2.9 0-4l6.4-6.4c1.1-1.1 2.9-1.1 4 0 1.1 1.1 1.1 2.9 0 4l-6.4 6.4c-1.1 1.1-2.9 1.1-4 0z"/>
    <rect class="icon" x="18" y="28" width="20" height="5" rx="2.5"/>
  </g>
</svg>