<svg xmlns="http://www.w3.org/2000/svg" width="55" height="55" viewBox="0 0 55 55">
  <defs>
    <style>
      .bg { fill: #0a0f1a; stroke: #5865f2; stroke-width: 2; }
      .icon { fill: #5865f2; filter: drop-shadow(0 0 4px rgba(88, 101, 242, 0.6)); }
    </style>
  </defs>
  <rect class="bg" x="2" y="2" width="51" height="51" rx="12"/>
  <g transform="translate(12, 15) scale(0.55)">
    <path class="icon" d="M47.6 11.5c-3.5-1.6-7.3-2.8-11.2-3.5-.5.9-1.1 2.1-1.5 3.1-4.2-.6-8.4-.6-12.5 0-.4-1-1-2.2-1.5-3.1-3.9.7-7.7 1.9-11.2 3.5C1.4 23.9-.9 36 .3 47.9c4.7 3.5 9.3 5.6 13.8 7 1.1-1.5 2.1-3.1 2.9-4.8-1.6-.6-3.1-1.3-4.6-2.2.4-.3.8-.6 1.1-.9 9 4.2 18.8 4.2 27.7 0 .4.3.7.6 1.1.9-1.5.9-3 1.6-4.6 2.2.8 1.7 1.8 3.3 2.9 4.8 4.5-1.4 9.1-3.5 13.8-7 1.4-14.6-2.4-27.2-9.8-38.4zM18.3 40.2c-3.3 0-6-3-6-6.7s2.6-6.7 6-6.7 6.1 3 6 6.7c0 3.7-2.7 6.7-6 6.7zm22.2 0c-3.3 0-6-3-6-6.7s2.6-6.7 6-6.7 6.1 3 6 6.7c0 3.7-2.6 6.7-6 6.7z"/>
  </g>
</svg>